<?xml version="1.0" encoding="UTF-8"?>
<svg version="1.1" xmlns="http://www.w3.org/2000/svg" width="423" height="104">
<path d="M0 0 C3.24599151 0.59098667 4.39347523 1.30534315 6.69091797 3.62597656 C7.34382813 4.28017578 7.99673828 4.934375 8.66943359 5.60839844 C9.33007812 6.30126953 9.99072266 6.99414062 10.67138672 7.70800781 C11.35136719 8.38154297 12.03134766 9.05507813 12.73193359 9.74902344 C18.5529315 15.69770027 18.5529315 15.69770027 18.85888672 20.52050781 C17.23548867 22.22934787 15.56569619 23.89497498 13.85888672 25.52050781 C12.98649814 28.19841678 12.98649814 28.19841678 12.85888672 30.52050781 C14.17888672 31.51050781 15.49888672 32.50050781 16.85888672 33.52050781 C19.46355531 32.40422127 20.86168291 31.51724558 22.73388672 29.33300781 C24.85888672 27.52050781 24.85888672 27.52050781 27.79638672 27.39550781 C31.96279924 28.9260267 33.21350054 30.99332625 35.85888672 34.52050781 C36.51888672 34.85050781 37.17888672 35.18050781 37.85888672 35.52050781 C37.85888672 36.18050781 37.85888672 36.84050781 37.85888672 37.52050781 C38.49826172 37.80925781 39.13763672 38.09800781 39.79638672 38.39550781 C41.85888672 39.52050781 41.85888672 39.52050781 42.85888672 41.52050781 C43.41357422 44.12207031 43.41357422 44.12207031 42.85888672 47.52050781 C40.54914324 50.63950448 37.79874631 53.23462344 34.98388672 55.89550781 C34.23751953 56.6315625 33.49115234 57.36761719 32.72216797 58.12597656 C27.16750221 63.52050781 27.16750221 63.52050781 24.85888672 63.52050781 C24.85888672 64.18050781 24.85888672 64.84050781 24.85888672 65.52050781 C24.19888672 65.52050781 23.53888672 65.52050781 22.85888672 65.52050781 C22.61138672 66.11863281 22.36388672 66.71675781 22.10888672 67.33300781 C20.6174995 69.94293544 19.52369224 71.11408267 16.85888672 72.52050781 C14.10888672 72.77050781 14.10888672 72.77050781 10.85888672 71.52050781 C8.64899757 69.40179287 6.7067945 67.16241471 4.75341797 64.80566406 C3.23338648 62.97222402 1.71313489 61.33523544 -0.01611328 59.70800781 C-2.14111328 57.52050781 -2.14111328 57.52050781 -4.14111328 53.52050781 C-1.83111328 50.88050781 0.47888672 48.24050781 2.85888672 45.52050781 C1.0698095 41.76899637 1.0698095 41.76899637 -2.32861328 39.70800781 C-3.22580078 39.61519531 -3.22580078 39.61519531 -4.14111328 39.52050781 C-4.67736328 40.32488281 -5.21361328 41.12925781 -5.76611328 41.95800781 C-8.14111328 44.52050781 -8.14111328 44.52050781 -10.86376953 45.55566406 C-15.08878419 45.51034209 -16.32636624 44.22008972 -19.24072266 41.32910156 C-19.80597656 40.73226562 -20.37123047 40.13542969 -20.95361328 39.52050781 C-21.53820312 38.95460937 -22.12279297 38.38871094 -22.72509766 37.80566406 C-26.56626759 33.87992608 -28.13040496 31.25672549 -28.14111328 25.52050781 C-26.4779729 23.05742513 -25.08354452 21.38215007 -22.98095703 19.36816406 C-22.438871 18.82316757 -21.89678497 18.27817108 -21.33827209 17.71665955 C-20.1901175 16.57181746 -19.03206476 15.4368278 -17.86499023 14.3112793 C-16.08392129 12.58814317 -14.34320334 10.8307085 -12.60400391 9.06542969 C-11.48186589 7.95576755 -10.35758394 6.8482684 -9.23095703 5.74316406 C-8.71194321 5.21827896 -8.19292938 4.69339386 -7.65818787 4.15260315 C-5.12633931 1.74837166 -3.47655135 0.57609261 0 0 Z " fill="#F67F43" transform="translate(43.14111328125,14.4794921875)"/>
<path d="M0 0 C0.5775 0.2475 1.155 0.495 1.75 0.75 C1.75 1.74 1.75 2.73 1.75 3.75 C0.43 3.75 -0.89 3.75 -2.25 3.75 C-0.765 5.235 -0.765 5.235 0.75 6.75 C1.74 6.42 2.73 6.09 3.75 5.75 C3.75 6.41 3.75 7.07 3.75 7.75 C5.4 7.75 7.05 7.75 8.75 7.75 C9.07153005 13.78341689 9.14997529 18.80381291 5.52734375 23.83984375 C3.03332006 26.34104448 0.59337961 28.65413117 -2.25 30.75 C-2.91 30.75 -3.57 30.75 -4.25 30.75 C-4.25 31.41 -4.25 32.07 -4.25 32.75 C-4.91 32.75 -5.57 32.75 -6.25 32.75 C-6.4975 33.348125 -6.745 33.94625 -7 34.5625 C-8.49138722 37.17242763 -9.58519447 38.34357486 -12.25 39.75 C-15 40 -15 40 -18.25 38.75 C-20.45988915 36.63128506 -22.40209222 34.3919069 -24.35546875 32.03515625 C-25.87550024 30.20171621 -27.39575183 28.56472763 -29.125 26.9375 C-31.11396038 24.89004078 -32.06505235 23.29603617 -33.25 20.75 C-26.99053206 11.3522702 -26.99053206 11.3522702 -22.890625 9.93359375 C-20.5625 9.75 -20.5625 9.75 -18.29296875 9.75390625 C-15.63516752 9.74882441 -13.65651492 8.81169776 -11.25 7.75 C-10.26 7.75 -9.27 7.75 -8.25 7.75 C-8.0025 7.1725 -7.755 6.595 -7.5 6 C-3.9244186 -0.43604651 -3.9244186 -0.43604651 0 0 Z " fill="#EB3C7B" transform="translate(72.25,47.25)"/>
<path d="M0 0 C3.5 0.125 3.5 0.125 4.5 1.125 C4.73481693 3.30792774 4.91363323 5.49703174 5.0625 7.6875 C5.14628906 8.88503906 5.23007813 10.08257812 5.31640625 11.31640625 C5.37699219 12.24324219 5.43757812 13.17007813 5.5 14.125 C6.24378906 13.79242188 6.98757812 13.45984375 7.75390625 13.1171875 C11.50849275 11.76062282 14.72288689 12.09555153 18.5 13.125 C23.57826209 15.90367171 26.66314023 18.61442069 28.5 24.125 C29.19448865 31.27481754 28.96194101 36.37144448 24.5 42.125 C20.10466812 46.2063796 16.60664184 46.53314049 10.8671875 46.36328125 C8.5 46.125 8.5 46.125 6.2578125 45.54296875 C5.67773438 45.40503906 5.09765625 45.26710937 4.5 45.125 C4.005 45.62 4.005 45.62 3.5 46.125 C0 46.25 0 46.25 -3.5 46.125 C-5.04501451 44.57998549 -4.62719131 43.1383978 -4.62939453 40.98828125 C-4.63254669 40.11067139 -4.63569885 39.23306152 -4.63894653 38.32885742 C-4.6369223 37.37470947 -4.63489807 36.42056152 -4.6328125 35.4375 C-4.63376923 34.46466064 -4.63472595 33.49182129 -4.63571167 32.48950195 C-4.63639358 30.428222 -4.63453853 28.36693992 -4.63037109 26.30566406 C-4.625023 23.13862312 -4.63031572 19.971724 -4.63671875 16.8046875 C-4.63605797 14.80729135 -4.63477681 12.80989529 -4.6328125 10.8125 C-4.63483673 9.85835205 -4.63686096 8.9042041 -4.63894653 7.92114258 C-4.63579437 7.04353271 -4.63264221 6.16592285 -4.62939453 5.26171875 C-4.62859894 4.48530029 -4.62780334 3.70888184 -4.62698364 2.90893555 C-4.38972689 -0.4241768 -3.43885146 0.12281612 0 0 Z M6.0625 23.1875 C4.10119303 26.87475711 3.91050002 28.99850014 4.5 33.125 C5.889089 36.17413936 5.889089 36.17413936 8.5 38.125 C12.40126052 38.7519883 14.51693383 38.70475697 17.9375 36.6875 C20.25587974 32.88535723 20.27201236 29.46259522 19.5 25.125 C18.12283334 22.41392287 18.12283334 22.41392287 15.5 21.125 C11.24980353 20.44193271 9.39257319 20.36974577 6.0625 23.1875 Z " fill="#0C162E" transform="translate(245.5,26.875)"/>
<path d="M0 0 C3.5625 0.1875 3.5625 0.1875 5.5625 2.1875 C6.34505033 4.72936057 7.0457257 7.23589502 7.6875 9.8125 C7.86925781 10.51890625 8.05101562 11.2253125 8.23828125 11.953125 C8.6858641 13.69634243 9.12499462 15.44172611 9.5625 17.1875 C9.91183594 16.04410156 10.26117188 14.90070312 10.62109375 13.72265625 C11.08056463 12.23172012 11.54020901 10.74083745 12 9.25 C12.23009766 8.49525391 12.46019531 7.74050781 12.69726562 6.96289062 C14.44921875 1.30078125 14.44921875 1.30078125 15.5625 0.1875 C18.5 0 18.5 0 21.5625 0.1875 C24.19845772 2.82345772 24.63952112 5.24937181 25.6875 8.8125 C26.04070312 10.00101563 26.39390625 11.18953125 26.7578125 12.4140625 C27.02335937 13.32929687 27.28890625 14.24453125 27.5625 15.1875 C29.57060938 12.17533592 30.25034766 10.03363338 31.125 6.5625 C32.46056678 1.28943322 32.46056678 1.28943322 33.5625 0.1875 C35.89547433 0.14657063 38.22955225 0.14508277 40.5625 0.1875 C41.73209458 3.69628373 41.33627489 4.61935758 40.19921875 8.046875 C39.88919922 8.99820313 39.57917969 9.94953125 39.25976562 10.9296875 C38.75993164 12.41855469 38.75993164 12.41855469 38.25 13.9375 C37.60721113 15.89034155 36.96526507 17.84346074 36.32421875 19.796875 C36.01790527 20.72177734 35.7115918 21.64667969 35.39599609 22.59960938 C34.67688523 24.8323496 34.01643311 27.06687366 33.39453125 29.328125 C32.5625 32.1875 32.5625 32.1875 31.5625 33.1875 C29.22952567 33.22842937 26.89544775 33.22991723 24.5625 33.1875 C22.31769358 27.57548394 20.72901426 22.11613717 19.5625 16.1875 C18.9025 16.1875 18.2425 16.1875 17.5625 16.1875 C17.39814453 17.0228125 17.39814453 17.0228125 17.23046875 17.875 C16.11974752 23.22091031 14.59024474 28.11813816 12.5625 33.1875 C10.2525 33.1875 7.9425 33.1875 5.5625 33.1875 C2.01482684 24.01111634 -0.76712942 14.64795784 -3.4375 5.1875 C-3.64479736 4.47134521 -3.85209473 3.75519043 -4.06567383 3.01733398 C-4.18837646 2.41348877 -4.3110791 1.80964355 -4.4375 1.1875 C-3.4375 0.1875 -3.4375 0.1875 0 0 Z " fill="#0D1830" transform="translate(357.4375,39.8125)"/>
<path d="M0 0 C3.29504993 1.90125058 5.51197693 4.06583847 7.5625 7.3125 C7.5625 7.9725 7.5625 8.6325 7.5625 9.3125 C5.375 11.0625 5.375 11.0625 2.5625 12.3125 C-0.63778195 11.47433092 -2.6718433 10.15627113 -5.4375 8.3125 C-9.58058411 7.715089 -13.36216261 7.9384696 -17.3125 9.3125 C-20.41792373 12.23525175 -21.73186786 15.11507994 -22.4375 19.3125 C-22.25356577 24.11878135 -21.08205031 27.42854528 -18.25 31.3125 C-14.82206525 33.75014249 -12.62648436 34.23769671 -8.4375 34.3125 C-5.50935181 33.51391413 -3.93605082 32.85093488 -1.875 30.625 C-1.400625 30.191875 -0.92625 29.75875 -0.4375 29.3125 C2.53582891 29.60024151 4.95059637 30.91326591 7.5625 32.3125 C5.8935694 37.33640904 3.7480215 39.37057873 -0.6640625 42.140625 C-6.82381894 44.74333899 -13.50809699 44.18047126 -19.8125 42.3125 C-24.56337986 38.69278201 -29.29272554 33.98805884 -31.4375 28.3125 C-32.45487784 19.99739268 -32.39961201 12.37665036 -27.39453125 5.34375 C-20.16009441 -2.16504672 -9.5482322 -4.32239083 0 0 Z " fill="#0B152B" transform="translate(134.4375,29.6875)"/>
<path d="M0 0 C0.66 -0.66 1.32 -1.32 2 -2 C5.5625 -2.1875 5.5625 -2.1875 9 -2 C10.90849948 -0.09150052 10.13059633 3.31478774 10.1328125 5.84375 C10.13376923 6.52804077 10.13472595 7.21233154 10.13571167 7.9173584 C10.1363933 9.36661877 10.13454023 10.81588218 10.13037109 12.26513672 C10.12502252 14.49062928 10.1303166 16.71592001 10.13671875 18.94140625 C10.13605797 20.34635461 10.1347768 21.75130285 10.1328125 23.15625 C10.13168457 24.44337891 10.13055664 25.73050781 10.12939453 27.05664062 C10 30 10 30 9 31 C5.5625 31.1875 5.5625 31.1875 2 31 C1.34 30.34 0.68 29.68 0 29 C-0.99 29.66 -1.98 30.32 -3 31 C-7.88990708 31.72380724 -11.90674993 31.52637966 -16.375 29.375 C-21.42846624 24.80281626 -23.63986881 20.84249266 -24 14 C-24 7.93796332 -21.86800896 4.90432073 -17.82421875 0.671875 C-12.49656128 -4.21086033 -5.95568353 -3.97045569 0 0 Z M-12.9375 7 C-14.63437595 10.19411944 -15.13222615 13.42989382 -15 17 C-13.66048669 19.99795835 -12.9444025 21.52779875 -10 23 C-5.9869676 23.53507099 -4.46071967 23.33051628 -1.125 20.9375 C1.25040832 18.11790495 1.25040832 18.11790495 1.5625 14.5 C0.89575014 10.35133418 0.24985922 8.68113385 -3 6 C-6.49239575 5.26216991 -9.69781286 5.32790341 -12.9375 7 Z " fill="#0D172D" transform="translate(227,42)"/>
<path d="M0 0 C3.24599151 0.59098667 4.39347523 1.30534315 6.69091797 3.62597656 C7.34382813 4.28017578 7.99673828 4.934375 8.66943359 5.60839844 C9.33007812 6.30126953 9.99072266 6.99414062 10.67138672 7.70800781 C11.35136719 8.38154297 12.03134766 9.05507813 12.73193359 9.74902344 C18.5529315 15.69770027 18.5529315 15.69770027 18.85888672 20.52050781 C17.23548867 22.22934787 15.56569619 23.89497498 13.85888672 25.52050781 C12.98649814 28.19841678 12.98649814 28.19841678 12.85888672 30.52050781 C14.17888672 31.51050781 15.49888672 32.50050781 16.85888672 33.52050781 C19.46355531 32.40422127 20.86168291 31.51724558 22.73388672 29.33300781 C24.85888672 27.52050781 24.85888672 27.52050781 27.79638672 27.39550781 C31.96279924 28.9260267 33.21350054 30.99332625 35.85888672 34.52050781 C36.51888672 34.85050781 37.17888672 35.18050781 37.85888672 35.52050781 C37.85888672 36.18050781 37.85888672 36.84050781 37.85888672 37.52050781 C38.49826172 37.80925781 39.13763672 38.09800781 39.79638672 38.39550781 C41.85888672 39.52050781 41.85888672 39.52050781 42.85888672 41.52050781 C43.29638672 44.33300781 43.29638672 44.33300781 42.85888672 47.52050781 C41.0278643 49.57573706 39.12972126 50.91200001 36.85888672 52.52050781 C36.77729098 48.35912519 36.87640148 44.57325941 37.85888672 40.52050781 C36.20888672 40.52050781 34.55888672 40.52050781 32.85888672 40.52050781 C32.85888672 39.86050781 32.85888672 39.20050781 32.85888672 38.52050781 C31.20888672 39.18050781 29.55888672 39.84050781 27.85888672 40.52050781 C27.85888672 39.86050781 27.85888672 39.20050781 27.85888672 38.52050781 C27.19888672 37.86050781 26.53888672 37.20050781 25.85888672 36.52050781 C26.84888672 36.19050781 27.83888672 35.86050781 28.85888672 35.52050781 C29.84888672 36.01550781 29.84888672 36.01550781 30.85888672 36.52050781 C30.85888672 35.53050781 30.85888672 34.54050781 30.85888672 33.52050781 C28.5299677 33.56503201 28.5299677 33.56503201 25.85888672 34.52050781 C24.63724295 36.03148826 23.41793906 37.54517522 22.24560547 39.09472656 C19.91544502 41.49052533 17.03806389 41.82686916 13.85888672 42.52050781 C13.19888672 42.89175781 12.53888672 43.26300781 11.85888672 43.64550781 C8.69199758 45.03102181 6.26012275 44.94566232 2.85888672 44.52050781 C0.42138672 42.02050781 0.42138672 42.02050781 -1.14111328 39.52050781 C-4.43976841 39.88702505 -5.23960466 40.62657545 -7.57861328 43.14550781 C-10.14111328 45.52050781 -10.14111328 45.52050781 -12.41064453 45.52050781 C-16.18922362 44.13665052 -18.61835114 41.70224988 -21.39111328 38.89550781 C-21.93251953 38.38632812 -22.47392578 37.87714844 -23.03173828 37.35253906 C-23.54736328 36.83820312 -24.06298828 36.32386719 -24.59423828 35.79394531 C-25.05991211 35.3342334 -25.52558594 34.87452148 -26.00537109 34.40087891 C-27.83937618 31.36444141 -28.1235201 29.05626802 -28.14111328 25.52050781 C-26.4779729 23.05742513 -25.08354452 21.38215007 -22.98095703 19.36816406 C-22.438871 18.82316757 -21.89678497 18.27817108 -21.33827209 17.71665955 C-20.1901175 16.57181746 -19.03206476 15.4368278 -17.86499023 14.3112793 C-16.08392129 12.58814317 -14.34320334 10.8307085 -12.60400391 9.06542969 C-11.48186589 7.95576755 -10.35758394 6.8482684 -9.23095703 5.74316406 C-8.71194321 5.21827896 -8.19292938 4.69339386 -7.65818787 4.15260315 C-5.12633931 1.74837166 -3.47655135 0.57609261 0 0 Z M-0.14111328 2.52050781 C-0.64900391 2.97941406 -1.15689453 3.43832031 -1.68017578 3.91113281 C-4.78593918 6.6795661 -7.75442812 9.27302931 -11.26611328 11.52050781 C-17.19603952 15.64567389 -20.79785365 21.21974928 -24.14111328 27.52050781 C-23.48111328 28.51050781 -22.82111328 29.50050781 -22.14111328 30.52050781 C-21.48111328 30.52050781 -20.82111328 30.52050781 -20.14111328 30.52050781 C-19.97611328 31.13925781 -19.81111328 31.75800781 -19.64111328 32.39550781 C-17.58937184 35.30214152 -15.65149659 35.68891138 -12.25048828 36.41503906 C-8.97849414 36.57863877 -6.82431911 35.2645916 -4.14111328 33.52050781 C-3.81111328 34.18050781 -3.48111328 34.84050781 -3.14111328 35.52050781 C-3.14111328 34.86050781 -3.14111328 34.20050781 -3.14111328 33.52050781 C-2.15111328 33.85050781 -1.16111328 34.18050781 -0.14111328 34.52050781 C0.84888672 34.19050781 1.83888672 33.86050781 2.85888672 33.52050781 C2.85888672 34.51050781 2.85888672 35.50050781 2.85888672 36.52050781 C3.51888672 36.52050781 4.17888672 36.52050781 4.85888672 36.52050781 C5.18888672 38.17050781 5.51888672 39.82050781 5.85888672 41.52050781 C7.83888672 41.85050781 9.81888672 42.18050781 11.85888672 42.52050781 C13.19343207 40.32243311 13.88676107 38.99437178 13.73388672 36.39550781 C12.85213243 33.99930174 12.85213243 33.99930174 8.85888672 32.52050781 C9.18888672 29.22050781 9.51888672 25.92050781 9.85888672 22.52050781 C10.84888672 22.52050781 11.83888672 22.52050781 12.85888672 22.52050781 C12.85888672 21.86050781 12.85888672 21.20050781 12.85888672 20.52050781 C13.84888672 20.52050781 14.83888672 20.52050781 15.85888672 20.52050781 C15.31164988 17.14588066 14.80398672 15.43815782 12.85888672 12.52050781 C12.19888672 12.19050781 11.53888672 11.86050781 10.85888672 11.52050781 C8.85888672 10.52050781 8.85888672 10.52050781 6.85888672 7.52050781 C6.19888672 7.52050781 5.53888672 7.52050781 4.85888672 7.52050781 C4.85888672 6.86050781 4.85888672 6.20050781 4.85888672 5.52050781 C4.21951172 5.39675781 3.58013672 5.27300781 2.92138672 5.14550781 C1.90044922 4.83613281 1.90044922 4.83613281 0.85888672 4.52050781 C0.52888672 3.86050781 0.19888672 3.20050781 -0.14111328 2.52050781 Z " fill="#E4506F" transform="translate(43.14111328125,14.4794921875)"/>
<path d="M0 0 C3.91957776 3.4741712 6.64976951 6.30403974 7.3359375 11.5859375 C7.42008675 17.59419376 7.20291259 21.34271849 3 26 C-2.24609783 30.62156238 -5.3385553 31.33819937 -12.22265625 31.29296875 C-16.23335011 30.86989978 -18.05553112 29.70572816 -21 27 C-21 26.34 -21 25.68 -21 25 C-21.66 25 -22.32 25 -23 25 C-25.86078924 18.82069525 -27.08540692 13.65645037 -25 7 C-22.4877353 2.96962882 -19.57216512 -0.05670093 -15.5 -2.5 C-9.4681852 -3.70636296 -5.23813465 -3.30230228 0 0 Z M-15.4375 8.0625 C-17.41143691 11.77350139 -17.66694827 13.85009967 -17 18 C-15.10350449 21.14658666 -15.10350449 21.14658666 -12 23 C-8.49281795 23 -6.15069789 22.87837496 -3.31640625 20.71484375 C-1.20802354 17.96831553 -1.52528301 15.51463477 -1.65625 12.1640625 C-1.88834771 9.81778221 -1.88834771 9.81778221 -3.5625 7.4375 C-7.93645795 4.85798634 -11.5161086 4.74439959 -15.4375 8.0625 Z " fill="#0D172E" transform="translate(169,42)"/>
<path d="M0 0 C4.50297756 2.51430848 7.12006063 5.64763307 8.875 10.5 C9.72361542 15.72687018 9.68549981 20.64871134 7.25 25.4375 C3.93923326 29.70664659 1.55267743 32.14322155 -3.96875 32.87890625 C-8.76748548 33.06301615 -12.23400326 32.91367706 -16.625 30.875 C-21.64568994 26.10534456 -23.38707133 22.97130992 -23.625 16 C-23.45467568 10.4613054 -22.86585026 7.56149457 -19.125 3.5 C-18.650625 2.9225 -18.17625 2.345 -17.6875 1.75 C-12.38002116 -2.49598307 -6.09653037 -2.59475681 0 0 Z M-13.625 9.4375 C-15.70830785 13.6909202 -15.45688069 17.00274052 -14.125 21.5 C-12.66211443 23.80596047 -12.66211443 23.80596047 -10.125 24.5 C-6.66812497 24.37870614 -4.16132268 24.19088179 -1.25 22.25 C0.28915977 19.85575147 0.74456907 18.36948044 0.875 15.5 C-0.54791136 10.63744372 -0.54791136 10.63744372 -4.125 7.5 C-8.2361945 7.04320061 -10.29820461 6.85923357 -13.625 9.4375 Z " fill="#0E162D" transform="translate(345.125,40.5)"/>
<path d="M0 0 C0 2.64 0 5.28 0 8 C-1.65 8 -3.3 8 -5 8 C-5.66 9.65 -6.32 11.3 -7 13 C-4.69 13 -2.38 13 0 13 C0 15.64 0 18.28 0 21 C-1.98 21 -3.96 21 -6 21 C-5.99476318 21.72179443 -5.98952637 22.44358887 -5.98413086 23.18725586 C-5.96342642 26.43732849 -5.95036082 29.68738728 -5.9375 32.9375 C-5.92912109 34.07380859 -5.92074219 35.21011719 -5.91210938 36.38085938 C-5.90888672 37.46044922 -5.90566406 38.54003906 -5.90234375 39.65234375 C-5.89710693 40.65257568 -5.89187012 41.65280762 -5.88647461 42.68334961 C-6 45 -6 45 -7 46 C-9.64 46 -12.28 46 -15 46 C-15 37.75 -15 29.5 -15 21 C-16.32 21 -17.64 21 -19 21 C-19 18.36 -19 15.72 -19 13 C-17.68 13 -16.36 13 -15 13 C-15.061875 11.39125 -15.061875 11.39125 -15.125 9.75 C-14.94936709 4.48101266 -14.94936709 4.48101266 -13 2 C-8.36060597 -1.12889365 -5.39790321 -1.18753871 0 0 Z " fill="#0B162E" transform="translate(307,27)"/>
<path d="M0 0 C2.64 0 5.28 0 8 0 C9.55906782 1.55906782 9.12722371 3.06154281 9.12939453 5.22851562 C9.13254669 6.12614624 9.13569885 7.02377686 9.13894653 7.9486084 C9.1369223 8.92463013 9.13489807 9.90065186 9.1328125 10.90625 C9.13376923 11.9012854 9.13472595 12.8963208 9.13571167 13.92150879 C9.1363936 16.02986718 9.13453844 18.13822765 9.13037109 20.24658203 C9.12502303 23.48605027 9.13031567 26.72537985 9.13671875 29.96484375 C9.13605797 32.00781281 9.13477681 34.05078178 9.1328125 36.09375 C9.13483673 37.06977173 9.13686096 38.04579346 9.13894653 39.0513916 C9.13579437 39.94902222 9.13264221 40.84665283 9.12939453 41.77148438 C9.12820114 42.9627594 9.12820114 42.9627594 9.12698364 44.17810059 C9 46 9 46 8 47 C5.36 47 2.72 47 0 47 C0 31.49 0 15.98 0 0 Z " fill="#0D172C" transform="translate(179,26)"/>
<path d="M0 0 C2.05078125 0.03255208 4.1015625 0.06510417 6.15234375 0.09765625 C6.17761377 6.63044411 6.19517667 13.16321946 6.20727539 19.69604492 C6.21231692 21.92033357 6.21914998 24.14461888 6.2277832 26.36889648 C6.23985673 29.55843934 6.24557371 32.74793854 6.25 35.9375 C6.25516129 36.93853256 6.26032257 37.93956512 6.26564026 38.97093201 C6.26571579 39.89181107 6.26579132 40.81269012 6.26586914 41.76147461 C6.26808975 42.57643906 6.27031036 43.3914035 6.27259827 44.23106384 C6.15234375 46.09765625 6.15234375 46.09765625 5.15234375 47.09765625 C1.65234375 47.22265625 1.65234375 47.22265625 -1.84765625 47.09765625 C-3.40672407 45.53858843 -2.97487996 44.03611344 -2.97705078 41.86914062 C-2.98020294 40.97151001 -2.9833551 40.07387939 -2.98660278 39.14904785 C-2.98457855 38.17302612 -2.98255432 37.19700439 -2.98046875 36.19140625 C-2.98142548 35.19637085 -2.9823822 34.20133545 -2.98336792 33.17614746 C-2.98404985 31.06778907 -2.98219469 28.9594286 -2.97802734 26.85107422 C-2.97267928 23.61160598 -2.97797192 20.3722764 -2.984375 17.1328125 C-2.98371422 15.08984344 -2.98243306 13.04687447 -2.98046875 11.00390625 C-2.98249298 10.02788452 -2.98451721 9.05186279 -2.98660278 8.04626465 C-2.98345062 7.14863403 -2.98029846 6.25100342 -2.97705078 5.32617188 C-2.97625519 4.53198853 -2.97545959 3.73780518 -2.97463989 2.91955566 C-2.80057964 0.42222398 -2.50162223 0.13222105 0 0 Z " fill="#0B142A" transform="translate(194.84765625,25.90234375)"/>
<path d="M0 0 C3.5 0.125 3.5 0.125 4.5 1.125 C4.59804851 2.5317522 4.62798186 3.94335136 4.62939453 5.35351562 C4.63254669 6.25114624 4.63569885 7.14877686 4.63894653 8.0736084 C4.6369223 9.04963013 4.63489807 10.02565186 4.6328125 11.03125 C4.63376923 12.0262854 4.63472595 13.0213208 4.63571167 14.04650879 C4.6363936 16.15486718 4.63453844 18.26322765 4.63037109 20.37158203 C4.62502303 23.61105027 4.63031567 26.85037985 4.63671875 30.08984375 C4.63605797 32.13281281 4.63477681 34.17578178 4.6328125 36.21875 C4.63483673 37.19477173 4.63686096 38.17079346 4.63894653 39.1763916 C4.63579437 40.07402222 4.63264221 40.97165283 4.62939453 41.89648438 C4.62820114 43.0877594 4.62820114 43.0877594 4.62698364 44.30310059 C4.5 46.125 4.5 46.125 3.5 47.125 C0 47.25 0 47.25 -3.5 47.125 C-5.05906782 45.56593218 -4.62722371 44.06345719 -4.62939453 41.89648438 C-4.63254669 40.99885376 -4.63569885 40.10122314 -4.63894653 39.1763916 C-4.6369223 38.20036987 -4.63489807 37.22434814 -4.6328125 36.21875 C-4.63376923 35.2237146 -4.63472595 34.2286792 -4.63571167 33.20349121 C-4.6363936 31.09513282 -4.63453844 28.98677235 -4.63037109 26.87841797 C-4.62502303 23.63894973 -4.63031567 20.39962015 -4.63671875 17.16015625 C-4.63605797 15.11718719 -4.63477681 13.07421822 -4.6328125 11.03125 C-4.63483673 10.05522827 -4.63686096 9.07920654 -4.63894653 8.0736084 C-4.63579437 7.17597778 -4.63264221 6.27834717 -4.62939453 5.35351562 C-4.62859894 4.55933228 -4.62780334 3.76514893 -4.62698364 2.94689941 C-4.39253526 -0.41685166 -3.47632634 0.12415451 0 0 Z " fill="#0A132A" transform="translate(314.5,25.875)"/>
<path d="M0 0 C3.24526818 0.59538583 4.39561119 1.30967576 6.69311523 3.63037109 C7.34602539 4.28457031 7.99893555 4.93876953 8.67163086 5.61279297 C9.33227539 6.30566406 9.99291992 6.99853516 10.67358398 7.71240234 C11.35356445 8.3859375 12.03354492 9.05947266 12.73413086 9.75341797 C18.55512877 15.7020948 18.55512877 15.7020948 18.86108398 20.52490234 C17.23768593 22.2337424 15.56789346 23.89936951 13.86108398 25.52490234 C12.58993885 29.15674558 12.91159614 31.83244961 13.86108398 35.52490234 C11.88108398 34.86490234 9.90108398 34.20490234 7.86108398 33.52490234 C8.52108398 29.89490234 9.18108398 26.26490234 9.86108398 22.52490234 C10.85108398 22.52490234 11.84108398 22.52490234 12.86108398 22.52490234 C12.86108398 21.86490234 12.86108398 21.20490234 12.86108398 20.52490234 C13.85108398 20.52490234 14.84108398 20.52490234 15.86108398 20.52490234 C13.99470045 15.31867459 12.95653575 13.07262822 7.86108398 10.52490234 C6.04858398 8.96240234 6.04858398 8.96240234 4.86108398 7.52490234 C4.86108398 6.86490234 4.86108398 6.20490234 4.86108398 5.52490234 C3.21108398 4.86490234 1.56108398 4.20490234 -0.13891602 3.52490234 C-0.64680664 3.98380859 -1.15469727 4.44271484 -1.67797852 4.91552734 C-4.80448931 7.70245457 -7.8027187 10.3073629 -11.32641602 12.58740234 C-16.7462762 16.3210838 -20.43716344 21.60182939 -23.13891602 27.52490234 C-23.01203367 31.3481489 -23.01203367 31.3481489 -22.13891602 34.52490234 C-24.01391602 34.21240234 -24.01391602 34.21240234 -26.13891602 33.52490234 C-28.33780341 30.22657126 -28.78533994 29.35091087 -28.13891602 25.52490234 C-26.44902035 23.32578729 -24.83830625 21.49918609 -22.88110352 19.56787109 C-22.34043243 19.02004471 -21.79976135 18.47221832 -21.2427063 17.90779114 C-20.09716572 16.75447632 -18.94519941 15.60751337 -17.78735352 14.46655273 C-16.02146565 12.71986987 -14.28683859 10.94589316 -12.55297852 9.16748047 C-11.43495848 8.04917003 -10.31522086 6.93257355 -9.19360352 5.81787109 C-8.41978836 5.02113228 -8.41978836 5.02113228 -7.63034058 4.20829773 C-5.11301373 1.76993044 -3.49033854 0.58366865 0 0 Z " fill="#D9815B" transform="translate(43.138916015625,14.47509765625)"/>
<path d="M0 0 C3 1 3 1 5 4 C6.84490788 4.86513729 6.84490788 4.86513729 8.9375 5.3125 C9.62714844 5.49425781 10.31679688 5.67601562 11.02734375 5.86328125 C13.32527271 6.22435823 13.32527271 6.22435823 16 4 C18.48046875 3.8046875 18.48046875 3.8046875 21.1875 3.875 C22.08855469 3.89304688 22.98960938 3.91109375 23.91796875 3.9296875 C24.60503906 3.95289063 25.29210937 3.97609375 26 4 C26 4.99 26 5.98 26 7 C26.66 7 27.32 7 28 7 C28 7.99 28 8.98 28 10 C27.34 10 26.68 10 26 10 C25.67 10.99 25.34 11.98 25 13 C24.5875 12.484375 24.175 11.96875 23.75 11.4375 C22.13597452 9.80164393 22.13597452 9.80164393 20.125 10 C17.72613979 10.9673817 17.72613979 10.9673817 15.5625 13.625 C13 16 13 16 10.640625 15.93359375 C7.2742575 14.74341352 5.62815274 13.02386336 3.1875 10.4375 C2.39730469 9.61121094 1.60710938 8.78492188 0.79296875 7.93359375 C0.20128906 7.29550781 -0.39039062 6.65742187 -1 6 C-0.34 5.67 0.32 5.34 1 5 C0.67 3.35 0.34 1.7 0 0 Z " fill="#EB6E5B" transform="translate(20,44)"/>
<path d="M0 0 C0.33 0 0.66 0 1 0 C1.25 2.75 1.25 2.75 1 6 C-1 8.375 -1 8.375 -3 10 C-1.02598668 13.21691059 0.64010609 15.71722621 3.625 18.0625 C6.26227491 20.21396111 7.01867285 21.78838388 8 25 C11.50270092 25.36261159 11.50270092 25.36261159 14.5 23.8125 C14.995 23.214375 15.49 22.61625 16 22 C17.66666667 20.33333333 19.33333333 18.66666667 21 17 C21.56203125 16.3915625 22.1240625 15.783125 22.703125 15.15625 C28.3740092 9.14018154 28.3740092 9.14018154 33 9 C25.94975689 17.36628849 25.94975689 17.36628849 23 20 C22.34 20 21.68 20 21 20 C21 20.66 21 21.32 21 22 C20.34 22 19.68 22 19 22 C18.7525 22.598125 18.505 23.19625 18.25 23.8125 C16.75861278 26.42242763 15.66480553 27.59357486 13 29 C10.25 29.25 10.25 29.25 7 28 C4.79011085 25.88128506 2.84790778 23.6419069 0.89453125 21.28515625 C-0.62550024 19.45171621 -2.14575183 17.81472763 -3.875 16.1875 C-5.86396038 14.14004078 -6.81505235 12.54603617 -8 10 C-6.69118353 8.33043913 -5.37785174 6.66441696 -4.0625 5 C-2.96615234 3.6078125 -2.96615234 3.6078125 -1.84765625 2.1875 C-1.23792969 1.465625 -0.62820312 0.74375 0 0 Z " fill="#C13C7E" transform="translate(47,58)"/>
<path d="M0 0 C3.5 0.125 3.5 0.125 4.5 1.125 C4.57258946 3.31139453 4.58373783 5.50000389 4.5625 7.6875 C4.55347656 8.88503906 4.54445312 10.08257812 4.53515625 11.31640625 C4.52355469 12.24324219 4.51195312 13.17007813 4.5 14.125 C3.84 14.125 3.18 14.125 2.5 14.125 C2.5 10.825 2.5 7.525 2.5 4.125 C0.85 4.785 -0.8 5.445 -2.5 6.125 C-2.5 17.675 -2.5 29.225 -2.5 41.125 C-1.84 41.455 -1.18 41.785 -0.5 42.125 C-0.5 42.785 -0.5 43.445 -0.5 44.125 C2.14 43.795 4.78 43.465 7.5 43.125 C7.83 43.785 8.16 44.445 8.5 45.125 C4.44726192 46.10748196 0.66464926 46.28517882 -3.5 46.125 C-5.04501451 44.57998549 -4.62719131 43.1383978 -4.62939453 40.98828125 C-4.63254669 40.11067139 -4.63569885 39.23306152 -4.63894653 38.32885742 C-4.6369223 37.37470947 -4.63489807 36.42056152 -4.6328125 35.4375 C-4.63376923 34.46466064 -4.63472595 33.49182129 -4.63571167 32.48950195 C-4.63639358 30.428222 -4.63453853 28.36693992 -4.63037109 26.30566406 C-4.625023 23.13862312 -4.63031572 19.971724 -4.63671875 16.8046875 C-4.63605797 14.80729135 -4.63477681 12.80989529 -4.6328125 10.8125 C-4.63483673 9.85835205 -4.63686096 8.9042041 -4.63894653 7.92114258 C-4.63579437 7.04353271 -4.63264221 6.16592285 -4.62939453 5.26171875 C-4.62859894 4.48530029 -4.62780334 3.70888184 -4.62698364 2.90893555 C-4.38972689 -0.4241768 -3.43885146 0.12281612 0 0 Z " fill="#090F1C" transform="translate(245.5,26.875)"/>
<path d="M0 0 C0 0.33 0 0.66 0 1 C-1.25103516 1.27650391 -1.25103516 1.27650391 -2.52734375 1.55859375 C-7.2170381 3.5051598 -10.05146719 6.46694885 -13.5625 10.0625 C-14.53219727 11.00899414 -14.53219727 11.00899414 -15.52148438 11.97460938 C-19.97878122 16.46818127 -25.81986177 22.43965855 -26.08349609 29.11376953 C-25.8299513 31.24957752 -25.8299513 31.24957752 -25 34 C-26.875 33.6875 -26.875 33.6875 -29 33 C-31.19888739 29.70166891 -31.64642392 28.82600853 -31 25 C-29.31010434 22.80088494 -27.69939024 20.97428375 -25.7421875 19.04296875 C-25.20151642 18.49514236 -24.66084534 17.94731598 -24.10379028 17.38288879 C-22.9582497 16.22957398 -21.80628339 15.08261103 -20.6484375 13.94165039 C-18.88254963 12.19496753 -17.14792257 10.42099082 -15.4140625 8.64257812 C-14.29604246 7.52426768 -13.17630485 6.40767121 -12.0546875 5.29296875 C-11.28087234 4.49622993 -11.28087234 4.49622993 -10.49142456 3.68339539 C-7.00343483 0.30481144 -4.83305191 -0.60987012 0 0 Z " fill="#CA996B" transform="translate(46,15)"/>
<path d="M0 0 C0.33 0.66 0.66 1.32 1 2 C3.02463255 2.65213292 3.02463255 2.65213292 5 3 C4.67 3.99 4.34 4.98 4 6 C2.109375 6.5546875 2.109375 6.5546875 -0.25 6.875 C-4.84501301 7.73839416 -7.02760793 9.28450991 -10 13 C-10.33 13.66 -10.66 14.32 -11 15 C-12.65071396 16.02611949 -14.31970006 17.02308143 -16 18 C-17.34631825 18.98244845 -18.68441297 19.97676564 -20 21 C-19.85023052 16.05760716 -17.22419843 13.7682973 -13.828125 10.55859375 C-11.68966187 8.73541685 -9.43388168 7.39948197 -7 6 C-4.60863779 4.06485155 -2.29718954 2.04562412 0 0 Z " fill="#EC9345" transform="translate(43,17)"/>
<path d="M0 0 C0.99 0 1.98 0 3 0 C1.4553089 3.47555497 -0.34016725 6.26827987 -3 9 C-6.5 10.1875 -6.5 10.1875 -10 11 C-10.99 11.556875 -10.99 11.556875 -12 12.125 C-14.98478663 13.43084415 -17.78966601 13.12347438 -21 13 C-21 11.35 -21 9.7 -21 8 C-20.0925 8.350625 -19.185 8.70125 -18.25 9.0625 C-15.12241564 9.96468779 -13.94791919 10.13381507 -11 9 C-11.33 7.68 -11.66 6.36 -12 5 C-9.24921116 4.08307039 -7.64051087 3.89113917 -4.8125 3.9375 C-2.9253125 3.9684375 -2.9253125 3.9684375 -1 4 C-0.67 2.68 -0.34 1.36 0 0 Z " fill="#EE6072" transform="translate(67,46)"/>
<path d="M0 0 C3.97119259 1.68986919 5.35848432 3.81131242 7.9375 7.25 C8.5975 7.58 9.2575 7.91 9.9375 8.25 C9.9375 8.91 9.9375 9.57 9.9375 10.25 C5.19731099 8.41508812 0.57336749 6.33058541 -4.0625 4.25 C-4.3925 5.57 -4.7225 6.89 -5.0625 8.25 C-7.7025 8.58 -10.3425 8.91 -13.0625 9.25 C-13.3925 7.93 -13.7225 6.61 -14.0625 5.25 C-13.010625 5.683125 -13.010625 5.683125 -11.9375 6.125 C-9.09414803 6.58410678 -9.09414803 6.58410678 -7.60546875 4.9453125 C-7.11691406 4.38585938 -6.62835938 3.82640625 -6.125 3.25 C-3.41778281 0.27900268 -3.41778281 0.27900268 0 0 Z " fill="#AD666D" transform="translate(71.0625,41.75)"/>
<path d="M0 0 C2.875 -0.125 2.875 -0.125 6 0 C8.61167103 2.61167103 9.07131482 4.9721059 10.125 8.5 C10.47820312 9.6653125 10.83140625 10.830625 11.1953125 12.03125 C12 15 12 15 12 17 C11.01 16.67 10.02 16.34 9 16 C7.61328125 13.05859375 7.61328125 13.05859375 6.3125 9.4375 C5.65701172 7.64119141 5.65701172 7.64119141 4.98828125 5.80859375 C4.66214844 4.88175781 4.33601563 3.95492187 4 3 C2.02 3.66 0.04 4.32 -2 5 C-1.34 3.35 -0.68 1.7 0 0 Z " fill="#111825" transform="translate(373,40)"/>
<path d="M0 0 C0 2.64 0 5.28 0 8 C-0.66 7.67 -1.32 7.34 -2 7 C-2.625 3.9375 -2.625 3.9375 -3 1 C-4.65 1 -6.3 1 -8 1 C-8.0825 1.5775 -8.165 2.155 -8.25 2.75 C-9.20918964 5.62756891 -10.83980195 6.9052625 -13 9 C-14.23512079 11.13309192 -14.23512079 11.13309192 -15 13 C-15.31 4.94 -15.31 4.94 -13 2 C-8.36060597 -1.12889365 -5.39790321 -1.18753871 0 0 Z " fill="#0F1625" transform="translate(307,27)"/>
<path d="M0 0 C3.5 0.125 3.5 0.125 4.5 1.125 C4.58726223 2.90571246 4.60699041 4.6898314 4.59765625 6.47265625 C4.59443359 7.55224609 4.59121094 8.63183594 4.58789062 9.74414062 C4.57951172 10.88044922 4.57113281 12.01675781 4.5625 13.1875 C4.55798828 14.32767578 4.55347656 15.46785156 4.54882812 16.64257812 C4.53699747 19.47010351 4.5205141 22.2975264 4.5 25.125 C2.5 23.125 2.5 23.125 2.27294922 21.06201172 C2.28865967 19.82088623 2.28865967 19.82088623 2.3046875 18.5546875 C2.31113281 17.65878906 2.31757813 16.76289062 2.32421875 15.83984375 C2.34097656 14.90269531 2.35773438 13.96554688 2.375 13 C2.38402344 12.05511719 2.39304687 11.11023437 2.40234375 10.13671875 C2.42595478 7.79922708 2.45888484 5.46223877 2.5 3.125 C1.51 3.125 0.52 3.125 -0.5 3.125 C-1.49 6.095 -2.48 9.065 -3.5 12.125 C-3.83 12.125 -4.16 12.125 -4.5 12.125 C-4.52687279 10.31257948 -4.54633715 8.50004767 -4.5625 6.6875 C-4.57410156 5.67816406 -4.58570313 4.66882813 -4.59765625 3.62890625 C-4.44506773 -0.28346347 -4.05187323 0.14470976 0 0 Z " fill="#0D1120" transform="translate(314.5,25.875)"/>
<path d="M0 0 C2.97 0.495 2.97 0.495 6 1 C6.33 2.65 6.66 4.3 7 6 C7.66 6 8.32 6 9 6 C9 6.66 9 7.32 9 8 C11.97065509 7.65772428 11.97065509 7.65772428 15 7 C15.33 6.34 15.66 5.68 16 5 C16.66 5 17.32 5 18 5 C18 4.34 18 3.68 18 3 C19.65 3 21.3 3 23 3 C16.68656716 9.48880597 16.68656716 9.48880597 14 11 C9.35604214 10.70341109 7.33033073 8.79397848 4.1875 5.5 C3.39730469 4.6853125 2.60710938 3.870625 1.79296875 3.03125 C0 1 0 1 0 0 Z " fill="#C26866" transform="translate(19,49)"/>
<path d="M0 0 C4.42379595 0.68562875 6.28070736 2.97788096 8.8984375 6.44921875 C10.2734375 9.32421875 10.2734375 9.32421875 10.8984375 11.44921875 C8.03146258 10.1640231 5.92236038 8.87792621 3.8984375 6.44921875 C3.8984375 5.78921875 3.8984375 5.12921875 3.8984375 4.44921875 C1.4234375 3.45921875 1.4234375 3.45921875 -1.1015625 2.44921875 C-1.64425781 2.95453125 -2.18695313 3.45984375 -2.74609375 3.98046875 C-3.46152344 4.63015625 -4.17695312 5.27984375 -4.9140625 5.94921875 C-5.97560547 6.92375 -5.97560547 6.92375 -7.05859375 7.91796875 C-9.1015625 9.44921875 -9.1015625 9.44921875 -12.1015625 9.44921875 C-10.7463186 7.93134558 -9.36644979 6.43543486 -7.9765625 4.94921875 C-7.21085937 4.11390625 -6.44515625 3.27859375 -5.65625 2.41796875 C-3.1015625 0.44921875 -3.1015625 0.44921875 0 0 Z " fill="#DD9F53" transform="translate(44.1015625,15.55078125)"/>
<path d="M0 0 C0.99 0.33 1.98 0.66 3 1 C1.38113585 2.67262717 -0.2452729 4.33795537 -1.875 6 C-3.23238281 7.3921875 -3.23238281 7.3921875 -4.6171875 8.8125 C-7 11 -7 11 -9 11 C-9 11.66 -9 12.32 -9 13 C-9.66 13 -10.32 13 -11 13 C-11.66 14.32 -12.32 15.64 -13 17 C-13.66 16.67 -14.32 16.34 -15 16 C-6.17657625 3.84021915 -6.17657625 3.84021915 0 0 Z " fill="#AF4278" transform="translate(77,67)"/>
<path d="M0 0 C-0.90484792 1.15518918 -1.8244206 2.29885406 -2.75 3.4375 C-3.26046875 4.07558594 -3.7709375 4.71367188 -4.296875 5.37109375 C-6 7 -6 7 -8.140625 7.53515625 C-9.06101562 7.76525391 -9.06101562 7.76525391 -10 8 C-10.33 8.99 -10.66 9.98 -11 11 C-12.65 10.67 -14.3 10.34 -16 10 C-15.67 9.01 -15.34 8.02 -15 7 C-13.02 6.67 -11.04 6.34 -9 6 C-8.34 4.02 -7.68 2.04 -7 0 C-2.25 -1.125 -2.25 -1.125 0 0 Z " fill="#DE2E86" transform="translate(71,73)"/>
<path d="M0 0 C0 0.33 0 0.66 0 1 C-0.61488281 1.15855469 -1.22976562 1.31710938 -1.86328125 1.48046875 C-6.99495612 2.91339297 -6.99495612 2.91339297 -11 6.25 C-12.1828319 9.50278773 -12.62517203 12.56407695 -13 16 C-13.30903983 17.33917261 -13.62942911 18.67653254 -14 20 C-16.02907167 16.6853333 -16.12742133 14.5684021 -15.625 10.75 C-15.51414062 9.85796875 -15.40328125 8.9659375 -15.2890625 8.046875 C-15.14597656 7.03367187 -15.14597656 7.03367187 -15 6 C-14.01 6 -13.02 6 -12 6 C-11.9175 5.38125 -11.835 4.7625 -11.75 4.125 C-11 2 -11 2 -9.375 0.75 C-6.1989627 -0.25295915 -3.30771122 -0.12721966 0 0 Z " fill="#091122" transform="translate(125,36)"/>
<path d="M0 0 C0.33 0 0.66 0 1 0 C1.02686553 1.97909398 1.04633375 3.95828971 1.0625 5.9375 C1.07410156 7.03964844 1.08570313 8.14179687 1.09765625 9.27734375 C1 12 1 12 0 13 C-2.67058851 13.14115161 -5.32432238 13.04247107 -8 13 C-8 10.03 -8 7.06 -8 4 C-6 8 -6 8 -6 12 C-2.8945972 9.92973147 -2.29296653 9.32477108 -1 6 C-0.61709538 4.00889599 -0.27395385 2.00899487 0 0 Z " fill="#0C101E" transform="translate(187,60)"/>
<path d="M0 0 C4.67692308 1.47692308 4.67692308 1.47692308 6.3125 4.125 C6.539375 4.74375 6.76625 5.3625 7 6 C7.99 5.34 8.98 4.68 10 4 C10.5625 5.9375 10.5625 5.9375 11 8 C10 9 10 9 6.4375 9.0625 C5.303125 9.041875 4.16875 9.02125 3 9 C2.01 6.03 1.02 3.06 0 0 Z " fill="#0B1221" transform="translate(360,64)"/>
<path d="M0 0 C0.40863281 0.46019531 0.81726562 0.92039062 1.23828125 1.39453125 C3.17463654 3.15914771 4.72488998 3.83971622 7.1875 4.6875 C7.90292969 4.93886719 8.61835937 5.19023438 9.35546875 5.44921875 C9.89816406 5.63097656 10.44085938 5.81273438 11 6 C10.01 6.495 10.01 6.495 9 7 C9 7.99 9 8.98 9 10 C9.66 10.33 10.32 10.66 11 11 C10.34 11.66 9.68 12.32 9 13 C8.443125 12.278125 7.88625 11.55625 7.3125 10.8125 C5.0365555 7.92959334 5.0365555 7.92959334 2.25 5.375 C0 3 0 3 0 0 Z " fill="#E92D8B" transform="translate(45,68)"/>
<path d="M0 0 C0.33 0.66 0.66 1.32 1 2 C3.02463255 2.65213292 3.02463255 2.65213292 5 3 C4.67 3.99 4.34 4.98 4 6 C0.7 6.66 -2.6 7.32 -6 8 C-4.85240511 3.40962044 -3.70960782 2.66330818 0 0 Z " fill="#F89829" transform="translate(43,17)"/>
<path d="M0 0 C0.33 1.32 0.66 2.64 1 4 C-1.3125 6.75 -1.3125 6.75 -4 9 C-4.66 9 -5.32 9 -6 9 C-5.73323796 10.98491642 -5.73323796 10.98491642 -5 13 C-4.01 13.33 -3.02 13.66 -2 14 C-2 14.99 -2 15.98 -2 17 C-1.34 17 -0.68 17 0 17 C-0.33 17.66 -0.66 18.32 -1 19 C-4.12613393 16.03839944 -6.04783565 13.90432869 -8 10 C-5.36 6.7 -2.72 3.4 0 0 Z " fill="#A94C71" transform="translate(47,58)"/>
<path d="M0 0 C0.99 0 1.98 0 3 0 C1.45991675 3.46518731 -0.34925944 6.27562776 -3 9 C-6.25 9.8125 -6.25 9.8125 -9 10 C-8.75 8.125 -8.75 8.125 -8 6 C-5.41847698 4.27898465 -4.15081975 4 -1 4 C-0.67 2.68 -0.34 1.36 0 0 Z " fill="#E85365" transform="translate(67,46)"/>
<path d="M0 0 C3.875 1.75 3.875 1.75 5 4 C5.4375 6.8125 5.4375 6.8125 5 10 C3.16897758 12.05522925 1.27083454 13.3914922 -1 15 C-0.42655063 12.13275314 -0.1385485 11.1385485 2 9 C1.72965366 6.56282742 1.72965366 6.56282742 1 4 C0.814375 3.236875 0.62875 2.47375 0.4375 1.6875 C0.2209375 0.8521875 0.2209375 0.8521875 0 0 Z " fill="#AD5A70" transform="translate(81,52)"/>
<path d="M0 0 C2.475 0.495 2.475 0.495 5 1 C5 1.66 5 2.32 5 3 C8.87797662 3.43386092 8.87797662 3.43386092 10.75 1.5 C11.1625 1.005 11.575 0.51 12 0 C12.33 0.99 12.66 1.98 13 3 C12.34 3 11.68 3 11 3 C10.67 3.99 10.34 4.98 10 6 C8.02 6 6.04 6 4 6 C4 5.34 4 4.68 4 4 C3.34 4 2.68 4 2 4 C1.34 2.68 0.68 1.36 0 0 Z " fill="#E46760" transform="translate(24,51)"/>
<path d="M0 0 C3 1 3 1 5 4 C5.66 4.309375 6.32 4.61875 7 4.9375 C9.50038404 6.26582902 10.044551 7.37251525 11 10 C11 10.99 11 11.98 11 13 C10.34 13 9.68 13 9 13 C8.67 11.02 8.34 9.04 8 7 C5.69 7 3.38 7 1 7 C0 4 0 4 0 0 Z " fill="#E79045" transform="translate(48,22)"/>
<path d="M0 0 C1.12894876 0.93274109 2.25300876 1.87140122 3.375 2.8125 C4.00148438 3.33457031 4.62796875 3.85664063 5.2734375 4.39453125 C7 6 7 6 9 9 C8.625 11.6875 8.625 11.6875 8 14 C7.34 14 6.68 14 6 14 C5.81824219 13.38511719 5.63648438 12.77023438 5.44921875 12.13671875 C5.07216797 10.92435547 5.07216797 10.92435547 4.6875 9.6875 C4.32205078 8.48673828 4.32205078 8.48673828 3.94921875 7.26171875 C2.95212938 4.88593789 1.83632738 3.75402699 0 2 C0 1.34 0 0.68 0 0 Z " fill="#C79364" transform="translate(53,23)"/>
<path d="M0 0 C1.65 0 3.3 0 5 0 C5.33 0.99 5.66 1.98 6 3 C8.42383077 4.16953416 8.42383077 4.16953416 11 5 C11.66 5.33 12.32 5.66 13 6 C13 6.66 13 7.32 13 8 C8.25981099 6.16508812 3.63586749 4.08058541 -1 2 C-0.67 1.34 -0.34 0.68 0 0 Z " fill="#D0606A" transform="translate(68,44)"/>
<path d="M0 0 C0.99 0.33 1.98 0.66 3 1 C3.25 8.625 3.25 8.625 1 12 C0.63597631 10.56496445 0.28413409 9.12683494 -0.0625 7.6875 C-0.25972656 6.88699219 -0.45695313 6.08648437 -0.66015625 5.26171875 C-1 3 -1 3 0 0 Z " fill="#0B1323" transform="translate(204,53)"/>
<path d="M0 0 C0 0.66 0 1.32 0 2 C-2.63892176 3.78305524 -4.97178863 4.99059621 -8 6 C-8 4.35 -8 2.7 -8 1 C-5.23735711 0.40267181 -2.83967231 0 0 0 Z " fill="#E74771" transform="translate(56,58)"/>
<path d="M0 0 C1.32 0 2.64 0 4 0 C4 2.64 4 5.28 4 8 C3.34 8 2.68 8 2 8 C-0.1519437 4.77208445 -0.20086443 3.71599191 0 0 Z " fill="#161C28" transform="translate(303,40)"/>
<path d="M0 0 C2.33294775 -0.04241723 4.66702567 -0.04092937 7 0 C8 1 8 1 8.0625 4.0625 C8.041875 5.031875 8.02125 6.00125 8 7 C6.68 6.34 5.36 5.68 4 5 C4 4.34 4 3.68 4 3 C2.68 2.67 1.36 2.34 0 2 C0 1.34 0 0.68 0 0 Z " fill="#0C111C" transform="translate(229,40)"/>
<path d="M0 0 C0.99 0 1.98 0 3 0 C3.33 2.97 3.66 5.94 4 9 C3.01 9 2.02 9 1 9 C0.63877119 7.68942607 0.28619689 6.37646376 -0.0625 5.0625 C-0.35833984 3.96615234 -0.35833984 3.96615234 -0.66015625 2.84765625 C-0.77230469 2.23792969 -0.88445313 1.62820312 -1 1 C-0.67 0.67 -0.34 0.34 0 0 Z " fill="#E0875D" transform="translate(17,40)"/>
<path d="M0 0 C0.33 0.66 0.66 1.32 1 2 C0.67 2.66 0.34 3.32 0 4 C-2.64860427 4.59355614 -5.29197322 4.74209269 -8 5 C-8.33 3.68 -8.66 2.36 -9 1 C-7.88625 1.20625 -6.7725 1.4125 -5.625 1.625 C-3.830625 1.810625 -3.830625 1.810625 -2 2 C-1.34 1.34 -0.68 0.68 0 0 Z " fill="#CC6366" transform="translate(66,46)"/>
<path d="M0 0 C3.625 -0.1875 3.625 -0.1875 7 0 C7.33 0.99 7.66 1.98 8 3 C7.01 4.485 7.01 4.485 6 6 C5.67 4.68 5.34 3.36 5 2 C3.68 1.67 2.36 1.34 1 1 C0.34 2.65 -0.32 4.3 -1 6 C-1.33 5.01 -1.66 4.02 -2 3 C-1.34 2.01 -0.68 1.02 0 0 Z " fill="#0D121D" transform="translate(391,40)"/>
<path d="M0 0 C0.99 0.33 1.98 0.66 3 1 C0.69 3.31 -1.62 5.62 -4 8 C-4.33 7.34 -4.66 6.68 -5 6 C-2.59016393 1.29508197 -2.59016393 1.29508197 0 0 Z " fill="#A84C74" transform="translate(77,67)"/>
<path d="M0 0 C0.99 0.99 1.98 1.98 3 3 C2.875 5.5625 2.875 5.5625 2 8 C1.01 8.66 0.02 9.32 -1 10 C-0.67 6.7 -0.34 3.4 0 0 Z " fill="#DB4D74" transform="translate(81,54)"/>
<path d="M0 0 C2.875 -0.125 2.875 -0.125 6 0 C8.5654594 2.5654594 8.54046087 4.47686668 9 8 C8.01 8 7.02 8 6 8 C5.67 6.02 5.34 4.04 5 2 C3.35 1.67 1.7 1.34 0 1 C0 0.67 0 0.34 0 0 Z " fill="#0A101C" transform="translate(355,40)"/>
<path d="M0 0 C0.33 0.66 0.66 1.32 1 2 C0.34 2 -0.32 2 -1 2 C-1.33 2.99 -1.66 3.98 -2 5 C-3.65 4.67 -5.3 4.34 -7 4 C-6.67 3.01 -6.34 2.02 -6 1 C-4.02 0.67 -2.04 0.34 0 0 Z " fill="#E1268C" transform="translate(62,79)"/>
<path d="M0 0 C0.598125 0.226875 1.19625 0.45375 1.8125 0.6875 C0.7149777 3.68074263 0.13567108 4.53360901 -2.8125 5.9375 C-3.59625 6.185 -4.38 6.4325 -5.1875 6.6875 C-5.1875 2.6875 -5.1875 2.6875 -3.9375 0.875 C-2.1875 -0.3125 -2.1875 -0.3125 0 0 Z " fill="#0F1A34" transform="translate(173.1875,55.3125)"/>
<path d="M0 0 C2.97 0.495 2.97 0.495 6 1 C6.66 2.98 7.32 4.96 8 7 C4.2047869 5.50902342 2.38957269 3.24299151 0 0 Z " fill="#CD716C" transform="translate(19,49)"/>
<path d="M0 0 C0.66 0.33 1.32 0.66 2 1 C2 1.66 2 2.32 2 3 C2.66 3 3.32 3 4 3 C3.67 3.99 3.34 4.98 3 6 C1.125 5.6875 1.125 5.6875 -1 5 C-1.66 4.01 -2.32 3.02 -3 2 C-2.01 1.34 -1.02 0.68 0 0 Z " fill="#0F1835" transform="translate(134,62)"/>
<path d="M0 0 C0.33 0.66 0.66 1.32 1 2 C3.02463255 2.65213292 3.02463255 2.65213292 5 3 C4.67 3.99 4.34 4.98 4 6 C1.69 5.01 -0.62 4.02 -3 3 C-2.01 2.01 -1.02 1.02 0 0 Z " fill="#EE9F2E" transform="translate(43,17)"/>
<path d="M0 0 C0.66 1.32 1.32 2.64 2 4 C0.35 4.66 -1.3 5.32 -3 6 C-3 5.34 -3 4.68 -3 4 C-3.66 3.34 -4.32 2.68 -5 2 C-4.01 1.67 -3.02 1.34 -2 1 C-1.34 1.33 -0.68 1.66 0 2 C0 1.34 0 0.68 0 0 Z " fill="#EA5165" transform="translate(74,49)"/>
<path d="M0 0 C0.625 1.8125 0.625 1.8125 1 4 C0.01 5.485 0.01 5.485 -1 7 C-2.32 6.67 -3.64 6.34 -5 6 C-3.35 4.02 -1.7 2.04 0 0 Z " fill="#0A0F1B" transform="translate(390,66)"/>
<path d="M0 0 C0.99 0 1.98 0 3 0 C3 0.99 3 1.98 3 3 C3.66 3 4.32 3 5 3 C5 3.99 5 4.98 5 6 C3.0625 5.25 3.0625 5.25 1 4 C0.25 1.875 0.25 1.875 0 0 Z " fill="#F36B5C" transform="translate(43,48)"/>
<path d="M0 0 C2.0625 0.4375 2.0625 0.4375 4 1 C3.67 2.32 3.34 3.64 3 5 C2.01 5 1.02 5 0 5 C-0.5625 3.0625 -0.5625 3.0625 -1 1 C-0.67 0.67 -0.34 0.34 0 0 Z " fill="#111524" transform="translate(354,40)"/>
<path d="M0 0 C0.53625 0.226875 1.0725 0.45375 1.625 0.6875 C-0.025 1.0175 -1.675 1.3475 -3.375 1.6875 C-3.705 2.6775 -4.035 3.6675 -4.375 4.6875 C-5.695 4.0275 -7.015 3.3675 -8.375 2.6875 C-2.95961538 -0.38942308 -2.95961538 -0.38942308 0 0 Z " fill="#0C1320" transform="translate(218.375,39.3125)"/>
<path d="M0 0 C0.99 0.33 1.98 0.66 3 1 C3.33 2.65 3.66 4.3 4 6 C3.01 6.33 2.02 6.66 1 7 C0 4 0 4 0 0 Z " fill="#F39536" transform="translate(48,22)"/>
</svg>
